<svg xmlns="http://www.w3.org/2000/svg" width="45" height="44" viewBox="0 0 45 44" fill="none">
  <path d="M22.1286 0.117188C9.91495 0.117188 0.0224642 10.0097 0.0224642 22.2233C0.0199568 26.864 1.47885 31.3876 4.19216 35.1525C6.90547 38.9173 10.7354 41.7321 15.1386 43.1976C16.2439 43.3899 16.6573 42.7267 16.6573 42.1453C16.6573 41.6214 16.6286 39.8817 16.6286 38.0292C11.0755 39.0527 9.63863 36.6763 9.1965 35.4317C8.9467 34.7951 7.87014 32.8342 6.93063 32.3081C6.15691 31.8947 5.05161 30.8712 6.90189 30.8447C8.64385 30.816 9.88622 32.4474 10.3018 33.1106C12.2914 36.453 15.4702 35.5135 16.7391 34.9343C16.9336 33.4974 17.5128 32.5314 18.1495 31.9787C13.2309 31.4261 8.0912 29.5183 8.0912 21.0627C8.0912 18.6576 8.94671 16.6702 10.3571 15.1206C10.136 14.568 9.3623 12.3021 10.5781 9.26249C10.5781 9.26249 12.4284 8.68331 16.6573 11.5306C18.4569 11.0311 20.3162 10.7797 22.1838 10.7834C24.0629 10.7834 25.9419 11.031 27.7104 11.5284C31.9371 8.65457 33.7896 9.2647 33.7896 9.2647C35.0054 12.3043 34.2317 14.5702 34.0106 15.1228C35.4188 16.6702 36.2765 18.6311 36.2765 21.0627C36.2765 29.5471 31.1103 31.4261 26.1917 31.9787C26.9919 32.6684 27.6839 33.9948 27.6839 36.0684C27.6839 39.024 27.6551 41.4004 27.6551 42.1476C27.6551 42.7267 28.0707 43.4164 29.176 43.1954C33.5641 41.7138 37.3772 38.8935 40.0785 35.1314C42.7799 31.3693 44.2335 26.8548 44.2347 22.2233C44.2347 10.0097 34.3422 0.117188 22.1286 0.117188Z" fill="black"/>
</svg>