<svg xmlns="http://www.w3.org/2000/svg" width="45" height="41" viewBox="0 0 45 41" fill="none">
  <path d="M2.33415 0.327881H42.1252C42.7115 0.327881 43.2737 0.560784 43.6883 0.975354C44.1029 1.38992 44.3358 1.9522 44.3358 2.53849V37.9083C44.3358 38.4946 44.1029 39.0569 43.6883 39.4714C43.2737 39.886 42.7115 40.1189 42.1252 40.1189H2.33415C1.74786 40.1189 1.18558 39.886 0.771008 39.4714C0.356438 39.0569 0.123535 38.4946 0.123535 37.9083V2.53849C0.123535 1.9522 0.356438 1.38992 0.771008 0.975354C1.18558 0.560784 1.74786 0.327881 2.33415 0.327881ZM22.3623 19.5226L8.18785 7.48584L5.32511 10.8548L22.391 25.3454L39.1497 10.8438L36.2582 7.49911L22.3645 19.5226H22.3623Z" fill="black"/>
</svg>