<svg xmlns="http://www.w3.org/2000/svg" width="43" height="41" viewBox="0 0 43 41" fill="none">
  <path d="M9.3538 5.32773C9.35322 6.50031 8.88685 7.62464 8.05729 8.45336C7.22774 9.28209 6.10295 9.74733 4.93037 9.74675C3.75779 9.74616 2.63346 9.27979 1.80474 8.45024C0.97601 7.62068 0.510767 6.49589 0.511353 5.32331C0.511939 4.15073 0.978308 3.02641 1.80786 2.19768C2.63742 1.36895 3.76221 0.903711 4.93479 0.904297C6.10737 0.904884 7.23169 1.37125 8.06042 2.20081C8.88914 3.03036 9.35439 4.15515 9.3538 5.32773ZM9.48644 13.0207H0.64399V40.6975H9.48644V13.0207ZM23.4575 13.0207H14.6593V40.6975H23.3691V26.1738C23.3691 18.083 33.9137 17.3314 33.9137 26.1738V40.6975H42.6456V23.1674C42.6456 9.52789 27.0387 10.0363 23.3691 16.7345L23.4575 13.0207Z" fill="black"/>
</svg>